<svg id="Capa_1" enable-background="new 0 0 504.5 504.5" height="512" viewBox="0 0 504.5 504.5" width="512" xmlns="http://www.w3.org/2000/svg"><g><path d="m109.75 177.5c-44.474 0-80.821-35.381-82.423-79.471l7.726-7.726c2.929-2.929 2.929-7.677 0-10.607s-7.677-2.929-10.607 0l-4.696 4.696-4.696-4.696c-2.929-2.929-7.677-2.929-10.607 0s-2.929 7.677 0 10.607l7.86 7.86c1.676 52.303 44.74 94.337 97.443 94.337h45v-15z" fill="#ebebeb"/><path d="m500.053 79.697c-2.929-2.929-7.677-2.929-10.607 0l-4.696 4.696-4.696-4.696c-2.929-2.929-7.677-2.929-10.606 0s-2.929 7.677 0 10.607l7.726 7.726c-1.602 44.09-37.949 79.471-82.423 79.471h-60v15h60c52.703 0 95.767-42.034 97.443-94.337l7.86-7.86c2.928-2.93 2.928-7.678-.001-10.607z" fill="#353535"/><path d="m320.053 399.697c-2.929-2.929-7.677-2.929-10.607 0l-4.696 4.696-4.696-4.696c-2.929-2.929-7.677-2.929-10.607 0s-2.929 7.677 0 10.607l7.803 7.803v63.486l-24.87 8.29c-3.93 1.31-6.053 5.557-4.744 9.487 1.31 3.93 5.559 6.054 9.487 4.744l29.998-10c3.063-1.021 5.128-3.887 5.128-7.115v-68.892l7.803-7.803c2.93-2.93 2.93-7.678.001-10.607z" fill="#696969"/><path d="m397.12 489.883-24.87-8.29v-63.485l7.803-7.803c2.929-2.929 2.929-7.677 0-10.607-2.929-2.929-7.677-2.929-10.607 0l-4.696 4.696-4.697-4.697c-2.929-2.929-7.677-2.929-10.607 0s-2.929 7.677 0 10.606l7.803 7.803v68.892c0 3.228 2.066 6.094 5.128 7.115l29.998 10c3.928 1.31 8.177-.814 9.487-4.744 1.311-3.929-.813-8.176-4.742-9.486z" fill="#4f4f4f"/><path d="m357.25 285v90c0 4.143 3.357 7.5 7.5 7.5s7.5-3.357 7.5-7.5v-90z" fill="#4f4f4f"/><path d="m297.25 285v90c0 4.143 3.357 7.5 7.5 7.5s7.5-3.357 7.5-7.5v-90z" fill="#696969"/><path d="m117.25 285v196.592l-24.87 8.29c-3.93 1.31-6.053 5.557-4.744 9.487 1.31 3.93 5.559 6.054 9.487 4.744l29.998-10c3.063-1.021 5.128-3.887 5.128-7.115v-201.998z" fill="#ccc"/><path d="m192.25 285v196.592l24.87 8.29c3.93 1.31 6.053 5.557 4.744 9.487-1.31 3.93-5.559 6.054-9.487 4.744l-29.998-10c-3.063-1.021-5.128-3.887-5.128-7.115v-201.998z" fill="#b3b3b3"/><path d="m154.75 45-10 45 10 45h30v-19.023c8.964-5.188 15-14.874 15-25.977 0-24.853-20.147-45-45-45z" fill="#ccc"/><path d="m169.75 90c0-24.853-6.716-45-15-45-24.853 0-45 20.147-45 45 0 11.102 6.036 20.789 15 25.977v19.023h30v-19.023c8.964-5.188 15-14.875 15-25.977z" fill="#ebebeb"/><circle cx="139.75" cy="92.5" fill="#353535" r="7.5"/><circle cx="169.75" cy="92.5" fill="#353535" r="7.5"/><path d="m179.75 165h-30v80l50-30v-30c0-11.046-8.954-20-20-20z" fill="#ccc"/><path d="m149.75 165h-20c-11.046 0-20 8.954-20 20v30l60 30v-60c0-11.046-8.954-20-20-20z" fill="#ebebeb"/><path d="m199.75 215c0-11.046-8.951-20-19.997-20-5.522 0-10.522 2.239-14.141 5.857l-10.862 10.768-30 88.375h75z" fill="#999"/><path d="m143.888 200.857c-3.619-3.619-8.619-5.857-14.141-5.857-11.046 0-19.997 8.954-19.997 20v85h45v-88.375z" fill="#b3b3b3"/><path d="m213.802 284.049c-1.971-11.018-6.946-20.993-14.052-29.049h-30l45 202c5.466 0 10.586-1.469 15-4.023 4.414 2.554 9.534 4.023 15 4.023z" fill="#ccc"/><path d="m183.802 284.049c-1.971-11.018-6.946-20.993-14.052-29.049h-15l-64.59 60-25.41 142c5.466 0 10.586-1.469 15-4.023 4.414 2.554 9.534 4.023 15 4.023s10.586-1.469 15-4.023c4.414 2.554 9.534 4.023 15 4.023s10.586-1.469 15-4.023c4.414 2.554 9.534 4.023 15 4.023s10.586-1.469 15-4.023c4.414 2.554 9.534 4.023 15 4.023s10.586-1.469 15-4.023c4.414 2.554 9.534 4.023 15 4.023z" fill="#ebebeb"/><path d="m154.75 255h-45c-7.106 8.056-12.081 18.031-14.052 29.049l-5.538 30.951h4.59c33.137 0 60-26.863 60-60z" fill="#ccc"/><path d="m154.75 255h45c7.106 8.056 12.081 18.031 14.052 29.049l5.538 30.951h-4.59c-33.137 0-60-26.863-60-60z" fill="#b3b3b3"/><path d="m334.75 45-10 45 10 45h30v-19.023c8.964-5.188 15-14.874 15-25.977 0-24.853-20.147-45-45-45z" fill="#ccc"/><path d="m349.75 90c0-24.853-6.716-45-15-45-24.853 0-45 20.147-45 45 0 11.102 6.036 20.789 15 25.977v19.023h30v-19.023c8.964-5.188 15-14.875 15-25.977z" fill="#ebebeb"/><circle cx="319.75" cy="92.5" fill="#353535" r="7.5"/><circle cx="349.75" cy="92.5" fill="#353535" r="7.5"/><path d="m304.75 255 30 75c24.853 0 45-20.147 45-45z" fill="#4f4f4f"/><path d="m289.75 285c0 24.853 20.147 45 45 45v-75z" fill="#696969"/><path d="m364.75 165h-30l-25 60 25 60h45v-105z" fill="#ebebeb"/><path d="m304.75 165-15 15v105h45v-120z" fill="#fff"/><path d="m274.75 185v130c16.569 0 30-13.431 30-30v-120h-10c-11.046 0-20 8.954-20 20z" fill="#4f4f4f"/><path d="m374.75 165h-10v120c0 16.569 13.431 30 30 30v-130c0-11.046-8.954-20-20-20z" fill="#353535"/><path d="m259.25 0c-5.595 0-10.675 2.156-14.5 5.658l-20 15.842 20 43.5s36-16.209 36-43.5c0-11.874-9.626-21.5-21.5-21.5z" fill="#eb1b00"/><path d="m230.25 0c-11.874 0-21.5 9.626-21.5 21.5 0 27.291 36 43.5 36 43.5v-59.342c-3.825-3.502-8.904-5.658-14.5-5.658z" fill="#ff4128"/><path d="m327.25 165v90c0 4.143 3.358 7.5 7.5 7.5s7.5-3.357 7.5-7.5v-90z" fill="#353535"/></g></svg>