<?xml version="1.0" encoding="utf-8"?>
<!-- Generator: Adobe Illustrator 23.1.0, SVG Export Plug-In . SVG Version: 6.00 Build 0)  -->
<svg version="1.1" id="Layer_1" xmlns="http://www.w3.org/2000/svg" xmlns:xlink="http://www.w3.org/1999/xlink" x="0px" y="0px"
	 viewBox="0 0 256.1 115.5" style="enable-background:new 0 0 256.1 115.5;" xml:space="preserve">
<style type="text/css">
	.st0{fill:#FE4C77;}
	.st1{fill:#FECCD0;}
	.st2{fill:#FEB9C0;}
	.st3{fill:#FEDBDE;}
</style>
<g>
	<path class="st0" d="M193.5,43.5c1-2.2,2.3-4.2,4.2-5.7c3.9-3,8.4-2.8,12,0.5c1.9,1.7,3.4,3.8,4.6,6.1c0.2,0.4,0.4,0.8,0.7,1.3
		c1-1.6,1.8-3,2.9-4.3c1-1.3,2.1-2.4,3.5-3.3c4.4-3.1,9.3-2.3,12.5,2.1c2.9,4,3.3,8.5,2.6,13.1c-1,6.6-4.3,12.1-8.3,17.3
		c-1.2,1.3-2.4,2.6-3.7,3.8c-2.2,2.1-4.6,4-7.3,5.7c1.1,0.7,2.1,1.4,3.2,1.9c7.3,4,14.9,7,23,9c4.2,1.1,8.5,1.7,12.8,2.2
		c0,0.6,0,1.1,0,1.7c-1.5,0.1-3-0.1-4.4-0.3c-6.3-0.9-12.4-2.5-18.4-4.7c-5.3-1.9-10.5-4.2-15.3-7.1c-1.8-1.1-3.2-1.5-5.3-0.6
		c-4.4,2-9.1,2.7-13.8,3c-4.3,0.3-8.5,0.1-12.7-0.4c-4.5-0.5-8.9-1.5-13.2-2.7c-0.6-0.2-1-0.1-1.4,0.4c-0.4,0.5-1,0.9-1.3,1.5l0,0
		c-1.3,1.1-2.5,2.2-3.7,3.3c-8.6,7.5-18.6,12.6-29.4,16.1c-6.8,2.2-13.8,3.7-20.8,4.8c-6.9,1-13.9,1.6-21,1.8
		c-8.1,0.2-16.1,0.1-24.2-0.6c-5-0.5-10.1-1-15.1-1.8c-7.5-1.2-14.8-2.8-22.1-4.8c-9.1-2.6-18-5.7-26.5-9.7
		c-2.5-1.1-4.9-2.3-7.4-3.4c0-0.6,0-1.3,0-1.9c2,0.6,3.7,1.7,5.5,2.6c7,3.3,14.2,6.1,21.5,8.5c9.8,3.2,19.8,5.5,30,7.1
		c5,0.8,10,1.3,15.1,1.7c8.1,0.7,16.1,0.8,24.2,0.5c13-0.4,25.8-2,38.3-5.8c8.3-2.5,16.1-6,23.3-10.7c0.3-0.2,0.6-0.5,1-0.7
		c2.1-1.4,4.2-2.8,6-4.6c1.1-0.6,2-1.7,2.9-2.5c0.6-0.6,1.2-1.2,1.8-1.7c0.6-0.6,0.4-0.8-0.3-1.1c-2.1-0.7-4.1-1.5-6.2-2.3
		c-8.2-3.3-15.9-7.3-22.9-12.9c-5.1-4.1-9.2-9.1-11.6-15.3c-1.7-4.2-2.4-8.5-2-13.1c0.2-2.4,1-4.7,1.6-7c1.5-3.1,3.4-6,6.2-8.1
		c6-4.4,14.2-5.5,20.8-0.6c0.2,0.1,0.3,0.2,0.5,0.3c0.5,0.4,1,0.8,1.4,1.2c0.3,0.4,0.6,0.8,1.2,1c0.1-0.4,0.2-0.8,0.2-1.2
		c0.4-2.9,1.4-5.6,2.3-8.3c1.1-2.1,2.2-4.1,3.8-5.9c4.4-5,9.7-5.7,15.5-3.1c5.9,2.6,8.9,7.5,10.7,13.4c1.7,5.7,1.8,11.6,1.3,17.4
		c-0.3,3.8-1,7.5-2.1,11.1c-0.3,1.1-0.6,2.2-0.9,3.3c-1,2.9-2,5.8-3,8.8c-0.1,0.2-0.3,0.5-0.4,0.7c-2.9,6.8-6.6,13.2-11.4,18.9
		c-0.6,0.8-0.4,1,0.4,1.3c3,0.9,6.1,1.5,9.2,2c5,0.8,10,1,15,0.7c2.2-0.1,4.5-0.3,6.6-0.9c1.6-0.2,3.1-0.7,4.6-1.2
		c1.1-0.2,2-0.8,3.1-1.2c-0.2-0.5-0.6-0.6-0.9-0.8c-6.1-4.2-11.4-9.2-15.3-15.6c-2.9-4.8-4.9-9.8-4.6-15.6
		C192.6,46.5,193.2,45,193.5,43.5z M218.4,43.3c-0.7,0.7-1.1,1.6-1.6,2.4c-0.7,1.1-1.2,2.3-1.5,3.6c-0.1,0.2-0.3,0.5-0.4,0.7
		c-0.2-0.6-0.5-1.3-0.7-1.9c-1.3-3.4-3.1-6.6-6.1-8.9c-3.8-2.9-9.2-2-11.5,2.1c-0.8,0.8-1.3,1.8-1.6,2.9c-0.5,1.1-0.8,2.3-0.8,3.6
		c-0.4,3.2,0.3,6.3,1.5,9.2c3.9,9.5,11,16.2,19.4,21.8c0.3,0.2,0.6,0.2,0.9,0c4.4-2.6,8.1-5.8,11.3-9.8c1.2-1.2,2.1-2.6,2.9-4.1
		c0.8-0.9,1.2-2,1.6-3.1c0.3-0.1,0.4-0.3,0.4-0.5c0.1-0.2,0.2-0.5,0.3-0.7c1.4-2.5,2.1-5.2,2.5-7.9c0.6-4.1,0.2-8-2.4-11.3
		c-1.6-2.1-3.8-3.6-6.6-3.2C222.7,38.5,220.3,40.6,218.4,43.3z M132.3,26.9c-0.9,0.9-1.5,2-1.9,3.1c-0.6,1.1-1.1,2.2-1.3,3.4
		c-1.3,4.5-1.2,9,0.1,13.5c2.2,7.5,6.9,13.2,12.9,17.9c4.9,3.9,10.4,6.9,16.1,9.6c4.1,2,8.3,3.6,12.7,5c0.6,0.2,1.1,0.2,1.6-0.3
		c1.3-1.6,2.6-3,3.7-4.7c1.3-1.6,2.4-3.3,3.4-5.1c0.9-1.3,1.8-2.8,2.4-4.3c0.3-0.2,0.4-0.4,0.4-0.8c0.1-0.2,0.2-0.3,0.3-0.5
		c0.1-0.1,0.2-0.2,0.3-0.4c3.9-8.7,7-17.6,7.9-27.2c0.6-5.8,0.4-11.6-1.5-17.3c-1.6-4.9-4.4-9-9.2-11.4c-5.6-2.8-11.5-1.4-15,3.6
		c-0.8,0.9-1.3,1.9-1.9,2.9c-0.7,1.3-1.4,2.6-1.7,4.1c-1.3,3.4-1.8,6.8-1.4,10.4c0,0.2,0.4,0.7-0.3,0.6c-1.1-2.3-2.8-4.1-4.8-5.7
		c-5.1-3.8-10.7-4-16.4-1.5C136,23,133.8,24.6,132.3,26.9z"/>
	<path class="st1" d="M256.1,98.9c-0.1,1.4-1,1.5-2.2,1.5c-4.7-0.1-9.3-0.9-13.9-2.1c-7.7-1.9-15.1-4.7-22.2-8.4
		c-1.6-0.8-3.1-1.8-4.7-2.7c-0.9-0.5-1.6-0.7-2.7-0.3c-5.8,2.5-11.9,3.5-18.1,3.5c-6.3,0.1-12.4-0.7-18.5-2
		c-1.3-0.3-2.6-0.7-3.9-1.1c-0.9-0.2-1.6-0.1-2.3,0.6c-4.4,4.6-9.3,8.5-14.7,11.8c-5.3,3.2-10.8,5.8-16.6,7.9
		c-6.1,2.2-12.3,3.8-18.6,4.9c-3.7,0.7-7.4,1.2-11.1,1.6c-5,0.5-10,0.8-15,1c-4.1,0.2-8.2,0.2-12.3,0.1c-4.1-0.1-8.3-0.3-12.4-0.7
		c-4.8-0.5-9.6-1.1-14.4-1.8c-6.4-1-12.7-2.3-18.9-3.9c-8.9-2.4-17.6-5.2-26-8.9c-2.2-1-4.3-1.9-6.4-2.9C0.9,97.1,0.5,97,0.1,97
		c0-1.5,0-3,0-4.6c1.5,0,2.7,0.9,4,1.6c6.5,3.1,13.2,5.8,20.1,8c6.4,2.1,13,3.9,19.6,5.3c3.3,0.7,6.6,1.4,10,1.9
		c4.5,0.7,9,1.3,13.5,1.7c4.2,0.4,8.5,0.8,12.7,0.9c8.2,0.1,16.4,0.2,24.6-0.6c3.9-0.4,7.8-0.8,11.7-1.3c5.2-0.8,10.3-1.9,15.3-3.3
		c6.1-1.7,12-4,17.8-6.8c3.9-1.9,7.6-4.3,11.1-6.8c1-0.7,2.2-1.3,3.2-2.1c1.4-1,2.5-2.3,3.8-3.4c1.1-1,2.6-1.9,2.9-3.6l0,0
		c0.5,0,1.1,0,1.5,0.1c4.9,1.3,9.8,2.4,14.9,2.8c4.3,0.4,8.6,0.6,12.9,0.2c4.6-0.5,9.1-1.4,13.3-3.4c1-0.5,1.7-0.2,2.4,0.2
		c5.9,3.7,12.3,6.5,18.8,8.8c5.5,1.9,11.1,3.2,16.8,4c1.7,0.2,3.5,0.6,5.2,0.1C256.1,97.3,256.1,98.2,256.1,98.9z"/>
	<path class="st2" d="M170.3,83.9c-0.3,1.8-1.8,2.6-2.9,3.6c-1.3,1.1-2.4,2.4-3.8,3.4c-1,0.8-2.1,1.3-3.2,2.1
		c-3.5,2.5-7.2,4.9-11.1,6.8c-5.7,2.8-11.6,5-17.8,6.8c-5,1.4-10.1,2.5-15.3,3.3c-3.9,0.6-7.8,1-11.7,1.3
		c-8.2,0.8-16.4,0.8-24.6,0.6c-4.2-0.1-8.5-0.4-12.7-0.9c-4.5-0.5-9-1-13.5-1.7c-3.3-0.5-6.6-1.2-10-1.9c-6.6-1.4-13.1-3.2-19.6-5.3
		c-6.9-2.3-13.6-4.9-20.1-8c-1.3-0.6-2.5-1.5-4-1.6c0-1,0-1.9,0-2.9C2.6,90.7,5,91.9,7.5,93c8.6,3.9,17.4,7.1,26.5,9.7
		c7.3,2,14.6,3.7,22.1,4.8c5,0.8,10,1.3,15.1,1.8c8.1,0.7,16.1,0.8,24.2,0.6c7-0.2,14-0.8,21-1.8c7.1-1.1,14-2.6,20.8-4.8
		c10.8-3.5,20.8-8.6,29.4-16.1C167.8,86.1,169,85,170.3,83.9z"/>
	<path class="st2" d="M256.1,96.6c-1.7,0.6-3.5,0.2-5.2-0.1c-5.7-0.8-11.3-2.1-16.8-4c-6.6-2.3-12.9-5.1-18.8-8.8
		c-0.8-0.5-1.5-0.7-2.4-0.2c-4.2,2-8.7,2.9-13.3,3.4c-4.3,0.5-8.6,0.2-12.9-0.2c-5.1-0.5-10-1.6-14.9-2.8c-0.5-0.1-1-0.1-1.5-0.1
		c0.3-0.6,0.9-1,1.3-1.5c0.4-0.5,0.9-0.5,1.4-0.4c4.3,1.3,8.8,2.2,13.2,2.7c4.2,0.5,8.4,0.7,12.7,0.4c4.8-0.3,9.5-1,13.8-3
		c2.1-0.9,3.5-0.5,5.3,0.6c4.8,2.9,10,5.2,15.3,7.1c6,2.2,12.1,3.8,18.4,4.7c1.4,0.2,2.9,0.4,4.4,0.3
		C256.1,95.4,256.1,96,256.1,96.6z"/>
	<path class="st0" d="M79.5,74.9c-0.2,1.3-0.6,2.2-1.7,2.6c-1.1,0.3-2.2,0.3-2.9-0.7c-0.3-0.4-0.5-0.5-0.9-0.1
		c-0.7,0.9-1.6,1.2-2.7,0.8c-1-0.5-1.1-1.5-1-2.5c0.2-1.4,0.4-2.8,0.6-4.1c0.1-0.5,0.3-1.3-0.4-1.5c-0.8-0.2-1.1,0.7-1.2,1.2
		c-0.4,1.9-0.7,3.8-1,5.7c-0.2,1.2-1.4,1.8-2.4,1.1c-0.4-0.2-0.5-0.3-0.9-0.1c-1.7,0.7-2.1,0.5-3.1-1c-0.6,0.6-1.2,1.2-2.1,1.4
		c-1,0.2-1.7-0.3-2.4-1.4c-0.1,0.2-0.1,0.4-0.2,0.6c-0.7,0.8-1.6,1.1-2.6,0.7c-1-0.4-1.2-1.4-1.1-2.3c0.1-1.2,0.4-2.4,0.5-3.7
		c0.1-0.4,0.1-0.8,0.1-1.2c0-0.4,0-0.9-0.5-1c-0.5-0.1-0.7,0.3-0.9,0.6c-0.6,1.2-0.5,2.6-0.9,3.8c-0.2,0.8-0.4,1.7-0.4,2.5
		c0,1.3-0.8,1.3-1.8,1.3c-1.2,0-0.6-0.9-0.8-1.4c-0.5,0-0.8,0.5-1.2,0.8c-1.4,1-3,0.9-4.2-0.3c-0.3-0.3-0.5-0.4-0.8-0.1
		c-0.3,0.3-0.7,0.6-1,0.8c-1.2,0.6-1.8,0.3-2.9-1c-2.2,1.8-2.9,1.7-4.1-0.2c-0.2,0.2-0.3,0.3-0.5,0.5c-0.6,0.7-1.3,1-2.2,0.8
		c-0.9-0.2-1.4-0.9-1.6-1.8c-0.5-2.8,0.1-5.3,1.9-7.5c0.7-0.9,1.8-1.3,2.9-0.8c0.7,0.3,1.2-0.2,1.8-0.2c1,0,1.2,0.3,1.1,1.3
		c-0.4,1.9-0.7,3.8-1,5.7c-0.1,0.5-0.4,1.2,0.5,1.4c0.7,0.1,1-0.5,1.1-1c0.4-1.9,0.8-3.9,1.1-5.9c0.3-1.4,0.5-2.9,0.7-4.4
		c0.1-0.4,0.2-0.7,0.7-0.7c0.6,0,1.2-0.5,1.7-0.1c0.3,0.2,0,0.6,0,0.9c-0.5,3-1,6.1-1.5,9.1c0,0.2-0.1,0.4-0.1,0.6
		c0,0.5-0.4,1.4,0.5,1.4c0.8,0.1,1.2-0.6,1.2-1.3c0.2-2,0.5-3.9,1.7-5.5c0.6-0.8,1.4-1.3,2.4-1.4c1.4-0.2,2.1,0.5,2.2,1.9
		c0,1.8-1.1,3.6-2.9,4.1c-1.1,0.3-0.9,1.1-0.8,1.8c0.2,0.9,0.9,1,1.6,0.8c1.3-0.4,2.2-1.3,2.5-2.7c0.3-1.6,0.5-3.2,0.8-4.7
		c0.1-0.4,0-0.9,0.5-1c0.6-0.1,1.5-0.4,1.9,0.2c0.3,0.6,0.4,0.2,0.6,0.1c1.8-1,3-0.3,3,1.7c0,1.6-0.4,3.1-0.7,4.6
		c-0.1,0.5-0.3,1.2,0.4,1.4c0.7,0.2,1-0.4,1.2-1c0.6-1.9,1.1-3.9,1-5.7c-0.1-1.5,1-2.5,0.8-3.9c0-0.3,2-0.8,2.3-0.7
		c0.2,0.1,0.2,0.3,0.1,0.5c-0.1,0.6-0.2,1.1-0.3,1.7c0,0.2-0.1,0.6,0,0.7c1.5,0.7,0.4,0.9-0.2,1.4c-0.3,0.3-0.3,1-0.4,1.6
		c-0.3,1.4-0.5,2.9-0.7,4.4c-0.1,0.4-0.2,0.9,0.4,1.1c0.5,0.1,0.8-0.2,1.1-0.6c0.5-0.7,0.6-1.6,0.7-2.4c0.3-1.5,0.5-3.1,0.8-4.6
		c0.2-1.2,1.2-0.5,1.9-0.6c0.8-0.1,0.5,0.5,0.4,0.9c-0.3,2-0.7,4-1,6c-0.1,0.4-0.3,1.1,0.4,1.2c0.6,0.2,1-0.3,1.2-0.8
		c0.7-1.6,0.7-3.4,1.1-5.1c0.1-0.4,0.1-0.8,0.2-1.2c0.1-0.4,0-1.1,0.6-1c0.6,0,1.4-0.5,1.9,0.4c0.2,0.5,0.4,0,0.5,0
		c1.9-1,3.1-0.3,3.1,1.9c0,1.5-0.5,3-0.7,4.5c-0.1,0.5-0.3,1.3,0.5,1.4c0.8,0.1,1.1-0.6,1.2-1.2c0.2-2,0.5-3.9,1.6-5.6
		c0.7-1,1.6-1.6,2.8-1.6c1.1,0,1.7,0.6,1.8,1.7c0.1,1.9-0.9,3.7-2.8,4.3c-1.1,0.4-1.1,1.1-0.8,1.8c0.4,0.9,1.1,0.7,1.7,0.3
		C78.9,75.3,79.1,75.1,79.5,74.9z M35.6,69.8c0-0.5,0.1-0.9-0.3-1.1c-0.5-0.2-0.9,0-1.1,0.4c-1.1,1.8-1.5,3.7-1.3,5.7
		c0,0.4,0.2,0.7,0.6,0.8c0.4,0.1,0.7-0.1,0.9-0.4c0.2-0.3,0.4-0.6,0.4-0.8C35.1,72.8,35.4,71.2,35.6,69.8z M45.8,72.4
		c1.3-0.3,2.2-1.4,2.2-2.9c0-0.4,0.2-0.9-0.3-1.1c-0.5-0.2-0.8,0.2-1,0.6C46.3,70.2,45.8,71.2,45.8,72.4z M79.2,69.3
		c0-0.3,0-0.7-0.3-0.8c-0.4-0.2-0.7,0.1-0.9,0.4c-0.5,0.8-0.8,1.8-1.1,2.8c-0.1,0.2-0.2,0.5,0,0.7c0.3,0.2,0.5,0,0.7-0.2
		C78.7,71.5,79.1,70.4,79.2,69.3z"/>
	<path class="st1" d="M164.9,86.2c-0.6-1.1-1.8-1-2.7-1.3c-6-2.3-11.8-5.1-17.3-8.4c-4.7-2.8-9.1-6-12.8-10
		c-4.5-4.9-7.6-10.5-8.7-17.1c-0.7-4.3-0.3-8.7,1.1-12.8c0.1-0.4,0.2-0.8,0.3-1.2c0.6-1.2,1.2-2.4,2.2-3.4c-0.1,0.5-0.2,1-0.3,1.4
		c-0.9,2.2-1.4,4.4-1.5,6.7c-0.4,5.3,0.8,10.4,3.2,15.1c3.2,6.2,7.9,11.1,13.5,15c7.4,5.2,15.4,9.1,23.9,12.2
		c0.7,0.3,1.7,0.2,2.1,1.2C166.9,84.5,166.1,85.6,164.9,86.2z"/>
	<path class="st2" d="M167.9,83.7c-0.3-1-1.3-1-2.1-1.2c-8.5-3-16.5-7-23.9-12.2c-5.7-4-10.4-8.8-13.5-15c-2.4-4.7-3.6-9.8-3.2-15.1
		c0.2-2.3,0.6-4.6,1.5-6.7c0.2-0.4,0.2-0.9,0.3-1.4c0.3-0.6,0.4-1.4,1.2-1.7c-0.6,2.3-1.3,4.6-1.6,7c-0.4,4.6,0.3,8.9,2,13.1
		c2.5,6.1,6.5,11.1,11.6,15.3c6.9,5.6,14.7,9.6,22.9,12.9c2,0.8,4.1,1.6,6.2,2.3c0.8,0.3,1,0.5,0.3,1.1
		C169.1,82.5,168.5,83.1,167.9,83.7z"/>
	<path class="st0" d="M114.2,77.7c-1.1-0.1-1.9-0.4-2.1-1.4c-0.5,0.1-0.6,0.5-0.9,0.7c-1.1,0.9-2.3,0.8-3-0.3
		c-0.3-0.5-0.5-0.4-0.8-0.1c-0.7,0.8-1.5,1.2-2.5,0.9c-1.1-0.4-1.4-1.4-1.4-2.4c-0.2-2.5,0.3-4.8,2-6.7c0.9-1.1,1.9-1.2,3.2-0.8
		c0.5,0.2,1.1-0.3,1.8-0.3c0.9,0,1.1,0.2,0.9,1.1c-0.4,1.8-0.7,3.6-0.9,5.4c-0.1,0.6-0.6,1.5,0.4,1.8c0.9,0.2,1.2-0.8,1.3-1.4
		c0.4-2,0.8-4,1.1-6c0.1-0.6,0.3-0.8,0.9-0.8c1.6-0.1,1.6-0.1,1.3,1.5c-0.3,1.8-0.6,3.6-0.9,5.3c-0.1,0.5-0.3,1.2,0.3,1.4
		c0.7,0.2,1-0.5,1.1-1c0.4-1.9,0.8-3.8,1.1-5.8c0.3-1.5,0.3-1.5,1.8-1.4c0.6,0,0.8,0.2,0.7,0.8c-0.7,3.9-1.3,7.8-2.1,11.7
		c-0.1,0.5-0.3,0.9-0.5,1.3c-0.7,1.3-2.3,1.8-3.3,1c-1-0.7-1.2-2.4-0.3-3.6C113.5,78.4,113.8,78.2,114.2,77.7z M105.9,73.8
		c0,0.3,0,0.6,0,0.8c0,0.5,0.1,0.9,0.6,1c0.5,0.1,0.8-0.2,1.1-0.6c0.2-0.3,0.3-0.7,0.4-1c0.3-1.4,0.5-2.7,0.7-4.1
		c0.1-0.4,0.3-1-0.4-1.2c-0.6-0.2-0.9,0.3-1.2,0.7C106.2,70.8,105.9,72.2,105.9,73.8z M115.3,79c-0.1-0.3,0.1-0.7-0.3-0.7
		c-0.5-0.1-1.4,1-1.4,1.6c0,0.4,0.2,0.8,0.6,0.8C115.2,80.6,115,79.6,115.3,79z"/>
	<path class="st1" d="M210.3,81.2c-1.5,0.5-3,1-4.6,1.2c0-0.3,0-0.6-0.3-0.8c-2.2-1.7-4.2-3.6-6.1-5.7c-4.2-4.5-7.5-9.5-9.2-15.5
		c-0.7-2.7-1.2-5.3-0.7-8.1c0.1-0.4,0.2-1-0.3-1.3c0.3-1.1,0.6-2.2,0.9-3.3c0.7,0,0.8-0.6,1.1-1c0.3-0.4,0.4-0.9,0.9-1.2
		c0.1,0.5-0.1,1-0.3,1.4c-0.5,1.4-0.7,2.8-0.7,4.2c0,3.5,0.8,7,2.2,10.2c3.4,7.5,8.7,13.4,15.3,18.3C209.2,80,210,80.3,210.3,81.2z"
		/>
	<path class="st2" d="M210.3,81.2c-0.3-0.8-1.1-1.2-1.7-1.6c-6.6-4.9-11.9-10.8-15.3-18.3c-1.5-3.2-2.3-6.6-2.2-10.2
		c0-1.4,0.2-2.8,0.7-4.2c0.2-0.5,0.3-0.9,0.3-1.4c0.4-0.7,0.5-1.6,1.4-1.9c-0.3,1.5-0.8,3-0.9,4.5c-0.3,5.7,1.7,10.8,4.6,15.6
		c3.9,6.4,9.2,11.3,15.3,15.6c0.3,0.2,0.7,0.3,0.9,0.8C212.3,80.4,211.4,81,210.3,81.2z"/>
	<path class="st0" d="M103.3,69.5c-0.1,1.9-0.6,4.1-1.8,6.2c-1.2,2.1-2.1,2.4-4.2,1.4C97,77,97,77.1,96.8,77.3
		c-0.6,0.6-1.4,0.3-2.1,0.2c-0.3,0-0.2-0.4-0.1-0.6c0.7-3.8,1.3-7.6,2-11.4c0.1-0.6,1.8-1.4,2.3-1c0.3,0.2,0.1,0.6,0.1,0.9
		c-0.5,2.9-1,5.9-1.5,8.8c-0.1,0.6-0.5,1.4,0.3,1.7c0.8,0.3,1.4-0.3,1.8-0.9c0.7-1.2,1.1-2.6,1.3-4c0.3-1.7,0.5-3.3,0.3-5
		c-0.1-1.1-0.4-2.1-1.5-2.5c-1.3-0.4-2.5,0-3.4,0.9c-1.3,1.1-1.5,2.7-1.5,4.3c0,0.3,0.3,0.8-0.2,0.9c-0.4,0.1-0.8-0.2-1-0.5
		c-0.5-0.6-0.4-1.4-0.3-2.1c0.6-3.1,4.4-5.3,7.4-4.4c1.5,0.5,2.1,1.6,2.6,3C103.3,66.7,103.4,67.8,103.3,69.5z"/>
	<path class="st0" d="M27.4,74c1-3.4,1.9-6.9,2.9-10.3c0.1-0.3,0.2-0.6,0.3-0.9c0.2-0.4,0.5-0.3,0.8-0.3c0.5,0.1,0.3,0.4,0.2,0.6
		c-1.4,4.6-2.7,9.3-4.1,13.9c-0.3,1.1-1.3,0.4-2,0.5c-0.7,0.1-0.6-0.5-0.6-0.9c-0.1-3.9-0.1-7.8-0.2-11.6c0-0.3,0.2-0.8-0.2-0.9
		c-0.4-0.1-0.6,0.3-0.9,0.5c-1.1,1.2-1.3,2.6-1.3,4.1c0,0.3,0.4,0.8-0.2,0.9c-0.4,0.1-0.8-0.2-1-0.5c-0.5-0.8-0.4-1.6-0.2-2.4
		c0.5-2.2,3.2-4.2,5.4-4.3c0.8,0,0.9,0.5,0.9,1.1c0,3.1,0,6.2,0,9.4c0,0.4,0,0.8,0,1.3C27.3,74,27.3,74,27.4,74z"/>
	<path class="st0" d="M89.4,71.3c0,1.2,0.1,2.3,0,3.5c-0.1,1.6-1.2,2.7-2.8,2.9c-0.9,0.1-1.8-0.1-2.3-0.9c-0.6-0.9-0.8-2-0.2-2.8
		c1.2-1.8,1.7-3.8,2.3-5.7c0.2-0.8,1.6-1.6,2.4-1.3c0.4,0.2,0.3,0.5,0.3,0.8c0,1.2,0,2.4,0,3.6C89.2,71.3,89.3,71.3,89.4,71.3z
		 M86.6,70.2c-0.2,1.3-1.4,2.3-0.8,3.8c0.1,0.3-0.1,0.6-0.4,0.8c-0.3,0.2-1,0.2-0.5,0.8c0.4,0.6,0.9,0.6,1.4,0.3
		c0.6-0.4,0.7-0.9,0.7-1.5C87,72.9,87,71.6,86.6,70.2z"/>
	<path class="st1" d="M220.3,82c-1.1-0.5-2.1-1.1-3.2-1.9c2.7-1.7,5.1-3.6,7.3-5.7c1.3-1.2,2.4-2.5,3.7-3.8
		c-0.4,1.3-1.3,2.4-2.1,3.6C224.2,76.9,222.4,79.5,220.3,82z"/>
	<path class="st0" d="M53.9,57.6c0-0.6,0-1.3,0-1.9c0-0.4-0.2-0.9,0.5-0.9c0.7,0,0.5,0.5,0.5,0.9c0,0.7-0.2,1.4,0.9,1.4
		c0.7,0,1.2-0.2,1.1-1c0-0.2,0-0.5,0-0.7c0-0.3,0.1-0.5,0.5-0.5c0.3,0,0.5,0.2,0.5,0.5c0,1.6,0,3.2,0,4.8c0,0.4-0.2,0.5-0.5,0.5
		c-0.3,0-0.4-0.2-0.4-0.5c0-0.3,0-0.6,0-0.8c0.1-0.8-0.1-1.2-1-1.2c-1,0-1,0.5-1,1.2c0,0.2,0,0.5,0,0.7c0,0.3-0.1,0.5-0.5,0.5
		c-0.4,0-0.5-0.2-0.5-0.5C53.9,59.2,53.9,58.4,53.9,57.6C53.9,57.6,53.9,57.6,53.9,57.6z"/>
	<path class="st0" d="M79.9,54.8c1.6,0,2.2,0.5,2.3,1.7s-0.5,2-1.7,2.1c-0.7,0.1-0.7,0.4-0.7,0.9c0,0.4,0.3,1-0.5,1
		c-0.8,0-0.5-0.7-0.5-1.1c0-1.1,0-2.2,0-3.2C78.6,55.2,78.7,54.4,79.9,54.8z M79.7,56.7c0,0.5,0,0.9,0.6,0.9c0.6,0,0.9-0.3,0.9-1
		c0-0.6-0.3-0.9-0.9-0.9C79.6,55.7,79.7,56.3,79.7,56.7z"/>
	<path class="st0" d="M70.8,57.7c0-0.3-0.1-0.7,0-1c0.3-0.7-0.8-1.9,0.8-2c1.8-0.1,2.4,0.3,2.6,1.6c0.2,1.3-0.4,2.1-1.8,2.2
		c-0.9,0.1-0.6,0.6-0.7,1.1c0,0.4,0.1,0.9-0.5,0.8c-0.6,0-0.4-0.5-0.4-0.8C70.8,59.1,70.8,58.4,70.8,57.7z M71.7,56.8
		c0,0.4,0,0.9,0.7,0.8c0.6,0,0.9-0.3,0.9-1c0-0.6-0.3-0.9-0.9-0.9C71.6,55.7,71.7,56.2,71.7,56.8z"/>
	<path class="st0" d="M66.4,60.1c0.1,0.2,0.1,0.4-0.2,0.4c-0.4,0.1-0.7,0-0.8-0.5c-0.1-0.5-0.2-1-1-1c-0.7,0-1,0.3-1.1,0.9
		c-0.1,0.4-0.3,0.7-0.8,0.5c-0.5-0.2-0.2-0.5-0.1-0.8c0.4-1.5,0.9-2.9,1.3-4.3c0.1-0.3,0.2-0.5,0.5-0.6c0.3,0,0.6,0,0.7,0.4
		C65.4,56.8,65.9,58.5,66.4,60.1z M64.3,56.4c-0.2,0.7-0.8,1.2-0.3,1.9c0.1,0.2,0.6,0.2,0.8,0C65.1,57.5,64.5,57,64.3,56.4z"/>
	<path class="st0" d="M88.3,57.2c0.3-0.7,0.6-1.3,0.8-1.9c0.2-0.5,0.5-0.7,0.9-0.5c0.4,0.2,0,0.5-0.1,0.8c-0.6,1.4-1.5,2.8-1.3,4.4
		c0,0.3-0.1,0.5-0.5,0.5c-0.3,0-0.5-0.2-0.5-0.5c0.2-1.7-0.7-3.1-1.3-4.5c-0.1-0.2-0.4-0.5,0-0.7c0.3-0.1,0.6-0.1,0.8,0.3
		C87.6,55.8,87.7,56.6,88.3,57.2z"/>
	<path class="st2" d="M160.9,14.7c-0.9,2.7-1.9,5.4-2.3,8.3c-0.1,0.4-0.1,0.8-0.2,1.2c-0.6-0.2-0.8-0.7-1.2-1
		c0.9-2.1,1.6-4.3,2.2-6.5C159.9,16,159.9,15,160.9,14.7z"/>
	<path class="st0" d="M82.2,66.9c0.6-1,0.6-1.8-0.1-2.7c-0.4-0.5-0.1-1.2,0.4-1.6c0.3-0.3,0.7-0.4,1.1-0.2c0.6,0.3,0.8,0.9,0.7,1.5
		C84.1,65.1,83.3,66.3,82.2,66.9z"/>
	<path class="st0" d="M63.5,64.8c0.1-0.8,0.3-1.5,1.2-1.6c0.9,0,1.3,0.7,1.4,1.5c0.1,0.9-0.6,1.8-1.3,1.7
		C63.9,66.3,63.6,65.6,63.5,64.8z"/>
	<path class="st1" d="M159.4,16.6c-0.6,2.2-1.4,4.4-2.2,6.5c-0.5-0.4-1-0.8-1.4-1.2c1-1.3,1.8-2.8,2.7-4.1
		C158.8,17.4,158.9,16.9,159.4,16.6z"/>
	<path class="st3" d="M176,74.3c-0.2-1.2,0.5-2.1,0.9-3c2.8-6.5,4.9-13.1,6.2-20c0.7-3.8,1.1-7.7,0.9-11.6
		c-0.2-5.4-1.2-10.7-4.2-15.5c-2.6-4.1-6.2-6.7-11-7.5c-1.9-0.3-3.9-0.1-5.7,0.7c-0.6,0.3-1.2,0.5-1.8,0.7c0.3-1.5,1.1-2.8,1.7-4.1
		c0.6,0.1,1-0.4,1.5-0.7c1.8-1.3,3.9-1.9,6.1-1.9c2.9,0.1,5.5,1.1,8,2.6c4.1,2.7,6.2,6.8,7.5,11.3c1.3,4.6,1.6,9.3,1.3,14.1
		c-0.3,4.4-1,8.7-2.1,12.9c-1.5,5.5-3.3,10.8-5.8,15.9c-0.1,0.3-0.5,0.6,0,0.9C178.4,71,177.3,72.8,176,74.3z"/>
	<path class="st1" d="M179.4,69.2c-0.5-0.3-0.1-0.7,0-0.9c2.5-5.1,4.3-10.5,5.8-16c1.1-4.2,1.8-8.5,2.1-12.9c0.3-4.8,0-9.5-1.3-14.1
		c-1.3-4.5-3.4-8.6-7.5-11.3c-2.4-1.6-5.1-2.6-8-2.6c-2.2,0-4.2,0.6-6.1,1.9c-0.4,0.3-0.9,0.8-1.5,0.7c0.5-1,1.1-2,1.9-2.9
		c0.4,0.1,0.7-0.2,1.1-0.4c1.7-1.4,3.7-2.2,5.9-2.2c6.6-0.1,11.8,4,14.5,9.6c2.3,4.7,2.9,9.8,3,15c0.1,1.8-0.2,3.7-0.3,5.5
		c-0.2,2.5-0.6,4.9-1.1,7.3c-0.8,3.2-1.6,6.4-2.7,9.5c-0.7,2-1.2,4.1-2.2,6c-0.3,0.7-0.9,1.4-0.6,2.3c-0.1,0.2-0.2,0.3-0.3,0.5
		c-0.5,0.1-0.5,0.4-0.4,0.8C181.2,66.5,180.3,67.9,179.4,69.2z"/>
	<path class="st2" d="M182.5,63.7c-0.3-0.9,0.3-1.6,0.6-2.3c1-1.9,1.5-4,2.2-6c1.1-3.1,2-6.3,2.7-9.5c0.6-2.4,1-4.8,1.1-7.3
		c0.1-1.8,0.4-3.6,0.3-5.5c-0.2-5.2-0.8-10.2-3-15c-2.7-5.6-7.9-9.7-14.5-9.6c-2.2,0-4.2,0.9-5.9,2.2c-0.3,0.3-0.6,0.5-1.1,0.4
		c3.5-5,9.4-6.4,15-3.6c4.9,2.4,7.6,6.4,9.2,11.3c1.9,5.6,2,11.4,1.5,17.3c-0.9,9.6-4,18.5-7.9,27.2
		C182.7,63.4,182.6,63.5,182.5,63.7z"/>
	<path class="st1" d="M156.1,34.2c-1.9-2.6-4-5-6.9-6.6c-4.4-2.4-9-2.3-13.6-0.4c-1.6,0.7-3.2,1.5-4.5,2.6c-0.2,0.2-0.5,0.3-0.8,0.3
		c0.5-1.1,1.1-2.2,1.9-3.1c0.6,0,0.9-0.4,1.4-0.6c3.6-2.5,7.5-3.9,12-3.4c4.4,0.5,7.9,2.6,10.6,6c0.7,0.8,1,2,2.2,2.4
		C157.8,32.4,157.4,33.7,156.1,34.2z"/>
	<path class="st2" d="M158.5,31.3c-1.2-0.4-1.5-1.6-2.2-2.4c-2.8-3.4-6.3-5.5-10.6-6c-4.4-0.5-8.4,0.9-12,3.4
		c-0.4,0.3-0.8,0.7-1.4,0.6c1.6-2.3,3.7-4,6.2-5c5.7-2.5,11.2-2.3,16.4,1.5c2,1.5,3.7,3.4,4.8,5.7C159.8,30.1,158.9,30.5,158.5,31.3
		z"/>
	<path class="st1" d="M211.7,54.8c-0.7-0.1-0.8-0.8-0.9-1.3c-0.9-2.7-2.3-5.1-4.1-7.2c-2.7-3.1-6.7-5-11-2.2
		c-0.2,0.1-0.4,0.1-0.7,0.2c0.3-1.1,0.9-2.1,1.6-2.9c0.5,0.1,0.8-0.2,1.2-0.4c2.8-1.4,5.6-1.5,8.3,0.3c2.8,1.9,4.6,4.5,5.9,7.5
		c0.5,1.1,1,2.2,1.4,3.3C213.4,53.2,212.3,53.8,211.7,54.8z"/>
	<path class="st1" d="M230,64.9c-0.5-0.3-0.1-0.7,0-1c1.1-2.7,1.8-5.5,1.9-8.4c0.2-3.2-0.3-6.1-2.1-8.7c-3.3-4.8-7.5-5.1-11.9-1.7
		c-0.4,0.3-0.6,0.6-1.1,0.6c0.5-0.8,0.9-1.8,1.6-2.4c0.5,0,0.7-0.4,1.1-0.7c2-1.5,4.1-2.7,6.7-2.3c4.3,0.7,6.8,5,7.4,8.6
		c0.4,2.9,0.3,5.8-0.5,8.6c-0.3,1-0.9,1.9-0.6,3c-0.1,0.2-0.2,0.5-0.3,0.7c-0.3,0-0.4,0.2-0.4,0.5C231.3,62.9,230.8,64,230,64.9z"/>
	<path class="st2" d="M232.4,60.6c-0.4-1.1,0.3-2.1,0.6-3c0.8-2.9,0.9-5.8,0.5-8.6c-0.5-3.7-3.1-7.9-7.4-8.6
		c-2.6-0.5-4.7,0.8-6.7,2.3c-0.3,0.3-0.6,0.7-1.1,0.7c1.9-2.7,4.3-4.7,7.6-5.2c2.8-0.4,4.9,1.1,6.6,3.2c2.6,3.4,3,7.3,2.4,11.3
		C234.5,55.4,233.8,58.1,232.4,60.6z"/>
	<path class="st2" d="M213.4,51.9c-0.5-1.1-1-2.2-1.4-3.3c-1.3-3-3.1-5.7-5.9-7.5c-2.7-1.8-5.5-1.7-8.3-0.3
		c-0.4,0.2-0.7,0.5-1.2,0.4c2.4-4,7.7-5,11.5-2.1c3,2.3,4.7,5.4,6.1,8.9c0.3,0.6,0.5,1.3,0.7,1.9C214.6,50.8,214.1,51.5,213.4,51.9z
		"/>
	<path class="st2" d="M181.8,64.9c-0.1-0.4-0.1-0.7,0.4-0.8C182.2,64.5,182,64.7,181.8,64.9z"/>
	<path class="st2" d="M231.7,61.8c0-0.3,0.1-0.5,0.4-0.5C232.1,61.6,232,61.7,231.7,61.8z"/>
</g>
</svg>
