<?xml version="1.0" encoding="utf-8"?>
<!-- Generator: Adobe Illustrator 23.1.0, SVG Export Plug-In . SVG Version: 6.00 Build 0)  -->
<svg version="1.1" id="Main" xmlns="http://www.w3.org/2000/svg" xmlns:xlink="http://www.w3.org/1999/xlink" x="0px" y="0px"
	 viewBox="0 0 867 768" style="enable-background:new 0 0 867 768;" xml:space="preserve">
<style type="text/css">
	.st0{fill:#21344C;}
	.st1{fill:#1C3048;}
	.st2{fill:#B12828;}
	.st3{fill:#DE0745;}
</style>
<g id="Hearts">
	<g id="Blue-hears">
		<path class="st0" d="M835.6,605.6c-0.8-14-6.7-24.5-17.5-30.4c-10.8-5.9-21.6-5.3-31.9,2.6c-3.6,2.8-6.7,6.4-10.2,10.8v-1.8
			c-0.2,0-0.5,0.1-0.7,0.1s-0.4,0-0.6-0.1c-0.1,0.4-0.2,0.8-0.4,1.2c-1-1.3-2-2.4-2.9-3.4c-9.7-11.5-21.2-16-34.7-11.1
			c-15.5,5.4-24.6,24.2-20.5,42.2c2.1,8.9,6.4,16.3,11.5,23.2c13.9,18.5,30.5,33.6,46.7,49.4c1,1.1,1.8,0.8,2.7-0.1
			c12.2-11.9,24.4-23.4,35.8-36.3c6.7-7.6,13-15.4,17.8-24.8C833.6,620.2,836,613.3,835.6,605.6z M823.9,619
			c-3.7,8.3-8.9,15.3-14.5,21.9c-10.2,11.7-20.8,22.7-31.9,33.1c-1,1-1.8,2.3-3.5,0.7c-14-13.4-28.1-27-40.1-43
			c-3.3-4.4-6.2-9.4-8.2-14.9c-5.8-16,3.7-33.8,18.6-34.9c0.9,0,1.9,0,2.9,0c9.7,0,16.1,6.6,21.5,14.7c1.3,2,2.5,4.1,3.6,6.2
			c3.1,5.2,3.1,5.1,6.1,0.1c2.7-4.6,5.3-9.2,8.8-13.1c12.3-13.9,30.1-8.6,36.6,4C827.7,602.1,827.7,610.5,823.9,619z"/>
		<path class="st1" d="M451.3,185.5c-15.8-7.1-31.9-2.2-44.3,13.5c0,0.1-0.1,0.1-0.1,0.2l0,0c0,1.2-0.8,2-1.9,2.3
			c-0.2,0.3-0.5,0.6-0.7,0.9c-0.3-0.1-0.5-0.2-0.8-0.4v-0.3c-0.3,0-0.5-0.1-0.8-0.2v1.9c-1.9-2.3-3-3.8-4.1-5.2
			c-8.7-10.1-18.7-16.4-31.4-15.5c-26.4,1.9-42.9,33-31.5,59.7c4.6,11,11.1,20.3,18.4,28.9c14.9,17.7,31.5,33.3,47.9,49.1
			c1.3,1.3,1.9,0.7,2.9-0.2c14.9-14.4,29.9-28.8,43.8-44.6c8.1-9.3,15.8-19.2,21.2-31.1C481.5,219,469.1,193.6,451.3,185.5z"/>
		<path class="st0" d="M607.1,250.9c-5.9,3.6-10.7,8.7-15,14.3c-0.3-0.1-0.6-0.2-0.9-0.4V264c-0.2,0-0.4,0.1-0.6,0.1s-0.3,0-0.5,0v2
			c-1.3-1.7-1.9-2.4-2.5-3.1c-0.5-0.7-1.1-1.4-1.8-2.1c-10.9-12.5-23.5-17.3-38.4-11.9c-17.3,6.3-27.4,27.8-22.4,47.8
			c2.6,10,7.6,18.4,13.5,26.1c15.4,20.1,33.4,36.6,51,53.8c1.2,1.2,1.9,0.8,2.9-0.2c8.7-8.6,17.4-16.8,25.9-25.5
			c11.3-11.8,22.9-23.4,31.4-38.3c4.2-7.3,7.7-15.1,8-24.1C658.8,255.4,628.7,238,607.1,250.9z M645.7,297.9
			c-3.7,9-9,16.7-14.8,23.7c-12.1,14.2-24.9,27.3-38.2,39.9c-1,1-1.9,1.8-3.3,0.4c-16.4-15.9-33.1-31.3-46.6-50.6
			c-4.5-6.6-8.8-13.7-9.3-22.4c-0.7-11.5,3.5-20.7,12.1-26.3c9.2-6.1,18.6-6.1,27.6,0.9c4.3,3.3,7.8,7.6,10.8,12.5
			c2.2,3.7,4.3,7.2,6.8,11.5c2.7-4.4,4.9-8.4,7.3-12.4c8-13.5,18.7-18.9,30.8-16C642.6,262.2,652.9,280.6,645.7,297.9z"/>
		<path class="st0" d="M160.6,201.8c-11.1-16.1-35.7-21.7-53-1.9c-1.1,1.3-2.4,2.6-3.7,4c-0.2,0.4-0.6,0.8-1,1
			c-0.3,0.3-0.7,0.8-1,1.1v-0.7c-0.3,0.1-0.6,0.1-0.8,0v1.1c-2.4-2.8-4-4.7-5.8-6.7c-10.2-11.1-21.8-15.2-35.5-11
			c-19.6,6-30.3,30.3-22.8,52.3c3.3,9.6,8.6,17.5,14.4,25c14.9,18.7,32.1,34.6,49,50.9c1.2,1.2,2,0.8,3-0.2
			c14.1-13.7,28.2-27.2,41.3-42.2c8-9.2,15.7-19,20.6-31.1C171.1,228.7,169.5,214.7,160.6,201.8z M156.5,238.4
			c-4.7,12.1-12.6,21.3-20.7,30.4c-10.3,11.5-21,22.4-32.2,32.9c-1.1,1-2,2.1-3.6,0.6c-15.7-14.9-31.2-29.9-44.6-47.6
			c-3.9-5.2-7.3-10.9-9.5-17.4c-6-17,4-35.9,19.8-38.1c12.5-1.8,20.9,5.1,28,15.8c2.7,4,5,8.3,7.8,13.1c2.6-4.6,4.8-8.7,7.3-12.4
			c7.2-11.1,15.8-18.5,28.8-16.4C153.8,201.7,163.3,221.1,156.5,238.4z"/>
	</g>
	<g id="Red-hearts">
		<path class="st2" d="M737.3,449.4c-9.4-13.7-26.2-19.9-40.9-14.8c-9.2,3.1-16.3,10.1-23.3,18.3c0-0.7,0-1.2,0-1.9
			c-0.2,0-0.3,0-0.5,0.1c-0.2,0-0.4,0-0.5,0v1.6c-2.6-1.8-4.3-4-6.2-6c-10.6-11.7-23-16-37.4-12.2c-20.9,5.6-33.5,31.4-26.4,55
			c3.6,12.1,10.4,22.1,17.9,31.2c15.9,19.4,33.8,36.2,51.5,53.2c1.2,1.2,1.9,0.9,3-0.2c14.4-14,29-27.9,42.5-43.1
			c8.8-10,17.3-20.3,23.2-33C748,480.9,746.9,463.5,737.3,449.4z"/>
		<path class="st2" d="M231.6,309.2c14.2-21.9,42-19.1,51.3,5.1c3.8,10,2.6,19.7-1.8,29.1c-3.9,8.3-9.3,15.4-15,22
			c-10.8,12.5-22.6,23.8-34.3,35.1c-1,1-1.8,1.4-3,0.2c-14.6-14.2-29.6-27.9-42.3-44.6c-3.8-5.1-7.1-10.7-9.4-17
			c-7.2-20.3,4.9-42.6,23.8-44.3c11.9-1,20.6,4.8,27.8,15C230,311.5,230.8,310.3,231.6,309.2z"/>
		<path class="st2" d="M367.9,463.5c-15.4-1.6-27.5,5.3-38,17.5c-0.8,0.9-1.5,1.9-2.4,2.8v0.2c0,2.1-2.4,2.9-4,2.2l0,0
			c-0.3,0-0.6,0.1-0.9,0.2c-0.9-1.2-1.9-2.4-2.8-3.7c-1-1.3-2.2-2.6-3.3-3.9c-13.3-14.4-28.5-19.3-46.1-12.9
			c-22.7,8.2-36.7,38.5-25.8,65.7c4.6,11.5,11,21.7,18.6,30.9c18.4,22.7,39.4,42.2,60,62.1c1.5,1.4,2.1,0.2,2.9-0.6
			c16.8-16.2,33.8-32.4,49.5-50.2c10.8-12.2,21.1-24.9,27.6-41C415.7,501.8,397.6,466.3,367.9,463.5z M390.5,531.2
			c-6,12.3-14.1,22.5-22.8,32.2c-13.1,14.5-26.6,28.5-40.7,41.6c-1.3,1.3-2.4,2.8-4.4,0.8c-19.1-18-37.8-36.3-54.3-57.6
			c-6.2-8.1-11.6-16.9-14.3-27.5c-4.5-18.2,6.4-37.9,22.8-42.2c16.7-4.4,28.2,4.6,37.8,19c3.3,5,6.3,10.4,9.6,16.1
			c3.2-5.4,6.1-10.3,9-15.2c3.6-6.1,8.1-11.2,13.5-15.3c18.3-13.9,42.7-2.8,48,21.8C396.7,514.4,394.5,523,390.5,531.2z"/>
		<path class="st2" d="M528.4,658.5c-11.1-7.2-22.5-7-33.5,1.2c-3.8,2.8-6.8,6.7-10.8,11.3v-0.7c-1.3,1.8-5.3,1.3-5.3-1.4v-3
			c-9.8-11.1-21.1-15-34.4-10c-14.4,5.4-23.3,23.4-20.6,39c2,11.1,7.3,20.1,13.7,28.2c13.6,17.5,29.5,32.2,45,47.2
			c1.3,1.3,2,0.6,3-0.3c7.3-7.2,14.8-14.3,22.1-21.8c10.2-10.6,20.6-21.1,28.4-34.2c4.2-7,7.7-14.4,7.9-23.2
			C544.4,676.4,539.1,665.3,528.4,658.5z M531.8,702.8c-4.5,9.2-10.7,16.9-17.3,24.2c-9.2,10.2-18.6,19.9-28.4,29.1
			c-1,0.9-1.8,2.6-3.6,0.9c-14.4-13.7-28.8-27.3-40.8-43.9c-4.2-5.8-8-12.1-9.2-19.9c-2.1-14.1,7.2-27.4,19.4-29
			c10.9-1.4,18.4,4.7,24.7,14c2.5,3.8,4.6,7.8,7.2,12c2.5-4.2,4.5-8.1,7-11.8c4.9-7.6,10.9-13.4,19.5-14.7
			c12.5-1.7,24.2,9.2,25.2,23.7C536,693,534.1,698,531.8,702.8z"/>
	</g>
	<g id="Red-dots-stars">
		<path class="st2" d="M569.2,574.6c-0.6-7.8-3.4-12.7-10.7-13.5c6.3-3.1,9-8.1,7.7-16.1c4.5,6,9.5,7.6,15.8,3
			c-1.2,4.1-3.1,7.3-2.9,10.2c0.2,2.8,2.6,5.4,4.5,9.1C577.1,565.3,572.2,567.4,569.2,574.6z"/>
		<path class="st2" d="M180.7,496c2.7,0,5.8,0.9,7.9-0.2c2.1-1.1,3.2-4.4,5.5-7.9c0.4,8.1,3.7,12.3,10.8,12.5
			c-2.9,2.7-5.8,4.2-6.8,6.7c-1,2.4-0.2,5.9-0.2,8.8c-1,0.6-1.5-0.1-2.1-0.7c-3.2-3.6-6.5-5.3-10.7-2.2c-0.8,0.6-3.1,1.2-2-1.1
			c2.9-6.1,0.9-10.7-3.1-14.9C180.3,496.6,180.5,496.3,180.7,496z"/>
		<path class="st2" d="M63.1,369.4c2.4,3.1,3.6,6,5.7,7.3c2.1,1.4,4.8-0.9,7.9,0c-3.8,4.9-5.2,10.1-1.2,16.2c-5.6-2.7-10.2-2-14,3.9
			c0.5-7-1.5-11.8-7.5-14.1C59.9,381,63.3,377.3,63.1,369.4z"/>
		<path class="st2" d="M829.2,132.6c5.5,2.8,9.5,1.8,13.2-3.2c-0.3,6.3,0.6,11.3,6.8,13.4c-5.7,1.4-9.1,4.7-9.1,11.5
			c-2.9-5.2-6.2-8.7-12.2-6.4C830.9,143.2,833.4,138.5,829.2,132.6z"/>
		<path class="st2" d="M449.1,612.1c0.1,5-3.1,8.8-7.3,8.7c-4.1,0-7.1-3.6-7.2-8.3c-0.1-4.9,3.2-8.8,7.3-8.8
			C445.7,603.7,449,607.5,449.1,612.1z"/>
		<path class="st3" d="M553.2,51.3c-0.7,5.8-0.1,10.1,4.8,12.5c-4.7,1.1-8.3,3.2-8.3,9.8c-4.5-6.2-4.5-6.2-10.9-7.6
			c3.8-3.6,5.2-7.8,2.7-13.1C545.6,55,549.6,56.4,553.2,51.3z"/>
		<path class="st2" d="M709.4,733.2c-2.5,5.2-1.4,9.3,1.9,13.2c-4.9-1-8.2,0.8-10.1,6.2c-1.1-5.3-2.9-9.3-8.5-9.3
			c4.5-2.8,6.1-6.6,5.3-12.1C701.5,735.1,705,736.2,709.4,733.2z"/>
		<path class="st2" d="M816.8,434.8c3.7,0.3,6.6,4.2,6.3,8.6c-0.3,4.3-3.6,7.7-7.3,7.2c-3.7-0.4-6.6-4.2-6.3-8.4
			C809.8,437.9,813.2,434.3,816.8,434.8z"/>
		<path class="st2" d="M713.4,251.5c-3,4.4-2.7,8.4,0.9,13.2c-4.9-1.7-8.6-1.3-11.2,4.7c-0.6-5.9-1.4-10.3-6.8-11.1
			c4.2-2,6.8-4.9,6.6-10.6C705.7,252,709,253.5,713.4,251.5z"/>
		<path class="st2" d="M155.1,113.6c1.8-5.3,0.4-9.2-3.6-12.2c4.7,0,7.4-2.6,8.8-7.8c1.6,5,4.1,7.8,9.1,7c-3.2,3.4-5.2,7-3,12.3
			C162.4,110.2,158.8,109.9,155.1,113.6z"/>
		<path class="st2" d="M532,548.7c-3.7,0-6.4-3.1-6.3-7.2c0.1-4,2.8-7,6.2-7c3.5,0,6.4,3.2,6.3,7.3C538,545.7,535.5,548.6,532,548.7
			z"/>
		<path class="st2" d="M198.6,27.5c3.4,0,6,3.1,6.1,7.1c0,4.2-2.7,7.4-6.2,7.3c-3.3,0-6.1-3.3-6.1-7.1
			C192.3,30.8,195.1,27.4,198.6,27.5z"/>
		<path class="st2" d="M146.1,413.8c-3.3,0-5.5-2.7-5.4-6.7c0-3.8,2.5-6.6,5.7-6.4c3.2,0.1,5.6,3,5.5,6.7
			C151.7,411.2,149.3,413.9,146.1,413.8z"/>
		<path class="st3" d="M447.4,361.5c2.8,0,5.2,2.9,5,6.2c-0.1,3.2-2.4,5.7-5,5.7c-2.8,0-4.9-2.4-5-5.8
			C442.3,364.2,444.6,361.5,447.4,361.5z"/>
	</g>
	<g id="Blue-dots-stars">
		<path class="st0" d="M718.1,46.1c6.9-2.2,9.8-7.1,9.2-15.3c3.9,6.7,8.8,8.8,15.4,5.4c-4.3,6.6-4.2,12.4,0.3,18.5
			c-6.4-2.2-11.4-1.3-15,6.1C727.8,53.1,725.2,47.8,718.1,46.1z"/>
		<path class="st0" d="M834.1,340.4c3.4-4.7,4.6-8.9,1-13.9c4.7,1.7,8.9,1.4,12-3.7c-0.2,5.8,1.2,10,6.5,11.9
			c-4.7,1.8-8,4.7-7.3,11.4C840.9,340.2,840.9,340.2,834.1,340.4z"/>
		<path class="st0" d="M158.5,584.3c3.8,0,6.8,3.3,6.8,7.8c0,4.3-3,7.9-6.7,7.9c-3.7,0-6.8-3.6-6.9-7.9
			C151.7,587.7,154.7,584.3,158.5,584.3z"/>
		<path class="st0" d="M823.5,685.3c-1.5-5.1-4.5-7.2-9.2-7c3.6-3.4,4.9-7.3,2.6-12.3c4,2.7,7.5,3.9,11.2-0.8
			c-1.3,5.6-0.2,9.4,3.9,12.3C827.4,677.6,824.5,679.8,823.5,685.3z"/>
		<path class="st0" d="M282.6,116.4c1.6-5.3,0.5-9-3.4-12.1c4.4-0.4,7.7-2.2,8.8-7.9c1.5,5.1,4.1,7.8,9,7.3c-3.5,3.3-5,7.1-3.2,12.3
			C289.9,113.3,286.4,112.5,282.6,116.4z"/>
		<path class="st0" d="M18.9,312.3c0,4-3,7.4-6.3,7.4c-3.3-0.1-6.1-3.4-6.1-7.2c0-4,3-7.4,6.4-7.3C16.1,305.2,18.8,308.5,18.9,312.3
			z"/>
		<path class="st0" d="M746.8,191.2c-3.5-0.1-6.3-3.7-6.1-7.7c0.2-3.9,3.1-7,6.4-6.9c3.5,0.1,6.3,3.6,6.1,7.7
			C753,188.2,750.1,191.5,746.8,191.2z"/>
		<path class="st0" d="M408.4,439.9c-4.6-0.7-6.9,1.9-8.6,7c-0.7-5.7-2.9-8.2-8-8.2c3.9-2.8,6-5.8,4.4-10.8
			c3.2,2.4,6.3,4.1,10.3-0.2C405.2,432.8,404.2,436.9,408.4,439.9z"/>
		<path class="st0" d="M591.4,697.3c-0.9-4.9-3.4-7.2-8.5-7.2c4.2-2.8,6.3-5.7,4.7-10.7c3.2,2.8,6.3,3.6,9.9,0.9
			c-1.9,4.7-0.9,8,2.3,11.1C595.8,690.9,593.1,692.5,591.4,697.3z"/>
		<path class="st0" d="M536.8,197.7c3-0.1,5.8,2.9,5.9,6.4c0.1,3.7-2.4,6.7-5.5,6.8c-3.1,0.1-5.8-2.8-5.9-6.4
			C531.2,200.9,533.7,197.8,536.8,197.7z"/>
		<path class="st0" d="M867,522.9c-0.1,3.6-2.9,6.7-5.9,6.4c-3-0.1-5.6-3.3-5.5-6.9s2.7-6.4,5.9-6.4
			C864.5,516.2,867.1,519.2,867,522.9z"/>
		<path class="st0" d="M638.4,108.1c0,3.1-2.6,6.1-5.4,6c-2.6-0.1-4.9-3-4.9-6c0-3,2.4-5.9,4.9-6
			C635.7,101.9,638.4,104.9,638.4,108.1z"/>
		<path class="st0" d="M48.2,51.5c-0.3,4.4,1.6,6.2,5.4,7.1c-3.6,1.8-6,3.4-4.6,8.9c-2.9-3.6-5.2-5.4-9.1-3.1
			c2.5-3.9,2.5-6.8,0.2-10.2C43.5,55,46.2,54.8,48.2,51.5z"/>
		<path class="st0" d="M257.6,172.9c-2.8-0.2-4.4-2.1-4.4-5.3c0.1-3.2,1.6-5.1,4.5-5.1c2.9,0,4.4,2.1,4.4,5.2
			C262.1,170.9,260.4,172.7,257.6,172.9z"/>
		<path class="st0" d="M846.7,4.4c-0.2,3-1.5,4.7-3.8,4.8c-2.5,0.1-4-1.7-4-4.7c0-2.8,1.5-4.4,3.8-4.6C845,0,846.5,1.7,846.7,4.4z"
			/>
		<path class="st0" d="M758.8,425c-0.2,2.8-1.4,4.6-3.9,4.6c-2.4,0-3.8-1.7-3.8-4.3c-0.1-2.9,1.4-4.8,3.9-4.7
			C757.2,420.5,758.7,422,758.8,425z"/>
		<path class="st0" d="M436.7,73.7c0.2-2.7,1.5-4.3,4.1-4.2c2.4,0.1,3.7,1.9,3.7,4.6c0,2.9-1.6,4.7-4.1,4.6
			C438.2,78.4,436.8,76.7,436.7,73.7z"/>
		<path class="st0" d="M201.8,256.7c1.6,0.2,2.7,1.1,2.8,3.1c0.1,2.1-0.8,3.4-2.7,3.6c-1.6,0-2.8-1.1-2.9-3
			C199,258.2,200.1,257,201.8,256.7z"/>
		<path class="st0" d="M375.4,682.4c-1.5-0.2-2.8-1-2.9-3.1c-0.1-2.1,0.9-3.4,2.8-3.6c1.8,0,2.9,1.3,2.9,3.3
			C378.1,681.2,377,682.1,375.4,682.4z"/>
		<path class="st0" d="M538,354.8c-0.1,1.6-0.6,2.7-2.2,2.7c-1.3,0-2.4-0.8-2.4-2.4c0-1.6,0.8-2.6,2.2-2.7
			C537.2,352.2,537.8,353.3,538,354.8z"/>
		<path class="st0" d="M540.8,410.2c4.5-1.9,6.9-5,6.7-10.8c2.7,4.8,6.2,5.7,10.6,4c-2.8,4.3-3,8.3,1,13.2c-5.2-1.4-9-1.7-11.2,3.8
			C547.3,415.2,546,411.1,540.8,410.2z"/>
	</g>
</g>
</svg>
