<svg id="Layer_1" enable-background="new 0 0 512 512" height="512" viewBox="0 0 512 512" width="512" xmlns="http://www.w3.org/2000/svg"><g><path d="m491.396 512h-470.792c-11.379 0-20.604-9.225-20.604-20.604v-274.301h512v274.302c0 11.378-9.225 20.603-20.604 20.603z" fill="#ff91c1"/><path d="m470.793 217.095v274.302c0 11.379-9.225 20.604-20.604 20.604h41.207c11.379 0 20.604-9.225 20.604-20.604v-274.302z" fill="#ff7db6"/><path d="m512 217.095-256 148.361-256-148.361 242.404-211.973c7.777-6.83 19.414-6.83 27.191 0z" fill="#ff5492"/><path d="m453.785 250.913-197.785 114.543-197.785-114.607v-180.223h395.57z" fill="#e0efff"/><path d="m412.578 70.626v180.287l-177.176 102.608 20.598 11.935 197.785-114.543v-180.287z" fill="#d4e8ff"/><path d="m243.668 346.485-221.543 165.515h467.75l-221.543-165.515c-7.314-5.464-17.35-5.464-24.664 0z" fill="#ff5492"/><path d="m297.636 134.773c-18.593 0-34.579 12.351-41.638 30.047-7.06-17.696-23.045-30.047-41.638-30.047-25.13 0-45.502 22.56-45.502 50.389 0 63.699 87.14 98.876 87.14 98.876s86.282-35.652 87.14-98.876c.378-27.827-20.372-50.389-45.502-50.389z" fill="#ff91c1"/><g><path d="m297.636 134.773c-7.407 0-14.397 1.965-20.577 5.443 14.883 8.318 25.138 25.316 24.871 44.946-.587 43.246-41.138 73.588-66.709 88.447 11.989 6.878 20.776 10.428 20.776 10.428s86.282-35.652 87.14-98.876c.379-27.826-20.371-50.388-45.501-50.388z" fill="#ff7db6"/></g></g></svg>